<mxfile host="app.diagrams.net" modified="2021-02-09T13:57:43.786Z" agent="5.0 (Windows NT 10.0; Win64; x64) AppleWebKit/537.36 (KHTML, like Gecko) Chrome/88.0.4324.146 Safari/537.36" etag="VVFLZR5MYRCg3E5QtBx4" version="14.2.9" type="github">
  <diagram id="BSTLE7_yzejE6WdxNYc8" name="Page-1">
    <mxGraphModel dx="938" dy="575" grid="1" gridSize="10" guides="1" tooltips="1" connect="1" arrows="1" fold="1" page="1" pageScale="1" pageWidth="850" pageHeight="1100" math="0" shadow="0">
      <root>
        <mxCell id="0" />
        <mxCell id="1" parent="0" />
        <mxCell id="sjCQOgqBna5IyIyZHuyT-13" value="" style="rounded=0;whiteSpace=wrap;html=1;" vertex="1" parent="1">
          <mxGeometry x="498.5" y="152" width="172.5" height="110" as="geometry" />
        </mxCell>
        <mxCell id="sjCQOgqBna5IyIyZHuyT-12" value="" style="rounded=0;whiteSpace=wrap;html=1;" vertex="1" parent="1">
          <mxGeometry x="317" y="152" width="120" height="110" as="geometry" />
        </mxCell>
        <mxCell id="Sye2rz8z6Uivf4PvG4rr-3" value="" style="rounded=0;whiteSpace=wrap;html=1;" parent="1" vertex="1">
          <mxGeometry x="109.5" y="152" width="172.5" height="110" as="geometry" />
        </mxCell>
        <mxCell id="UTH4l14dTVkqmEDSazQt-14" value="" style="group" parent="1" vertex="1" connectable="0">
          <mxGeometry x="110" y="160" width="55" height="40" as="geometry" />
        </mxCell>
        <mxCell id="Sye2rz8z6Uivf4PvG4rr-4" value="&lt;div style=&quot;text-align: justify&quot;&gt;&lt;br&gt;&lt;/div&gt;" style="rounded=0;whiteSpace=wrap;html=1;align=center;strokeColor=none;fillColor=#B1DDF0;" parent="UTH4l14dTVkqmEDSazQt-14" vertex="1">
          <mxGeometry x="2.5" y="10" width="50" height="30" as="geometry" />
        </mxCell>
        <mxCell id="UTH4l14dTVkqmEDSazQt-13" value="&lt;font style=&quot;font-size: 10px&quot;&gt;&lt;b&gt;Service-A&lt;/b&gt;&lt;/font&gt;" style="text;html=1;strokeColor=none;fillColor=none;align=center;verticalAlign=middle;whiteSpace=wrap;rounded=0;" parent="UTH4l14dTVkqmEDSazQt-14" vertex="1">
          <mxGeometry width="55" height="10" as="geometry" />
        </mxCell>
        <mxCell id="UTH4l14dTVkqmEDSazQt-4" value="" style="group" parent="1" vertex="1" connectable="0">
          <mxGeometry x="122.5" y="186" width="40" height="14" as="geometry" />
        </mxCell>
        <mxCell id="UTH4l14dTVkqmEDSazQt-1" value="" style="rounded=0;whiteSpace=wrap;html=1;fontColor=#ffffff;strokeColor=none;fillColor=#008A00;" parent="UTH4l14dTVkqmEDSazQt-4" vertex="1">
          <mxGeometry width="40" height="14" as="geometry" />
        </mxCell>
        <mxCell id="UTH4l14dTVkqmEDSazQt-3" value="&lt;font style=&quot;font-size: 8px&quot;&gt;falken&lt;/font&gt;" style="rounded=0;whiteSpace=wrap;html=1;fontColor=#ffffff;strokeColor=none;fillColor=none;" parent="UTH4l14dTVkqmEDSazQt-4" vertex="1">
          <mxGeometry x="10" y="4" width="30" height="10" as="geometry" />
        </mxCell>
        <mxCell id="UTH4l14dTVkqmEDSazQt-15" value="" style="group" parent="1" vertex="1" connectable="0">
          <mxGeometry x="170" y="160" width="55" height="40" as="geometry" />
        </mxCell>
        <mxCell id="UTH4l14dTVkqmEDSazQt-16" value="&lt;div style=&quot;text-align: justify&quot;&gt;&lt;br&gt;&lt;/div&gt;" style="rounded=0;whiteSpace=wrap;html=1;fillColor=#d0cee2;align=center;strokeColor=none;" parent="UTH4l14dTVkqmEDSazQt-15" vertex="1">
          <mxGeometry x="2.5" y="10" width="50" height="30" as="geometry" />
        </mxCell>
        <mxCell id="UTH4l14dTVkqmEDSazQt-17" value="&lt;font style=&quot;font-size: 10px&quot;&gt;&lt;b&gt;Service-B&lt;/b&gt;&lt;/font&gt;" style="text;html=1;strokeColor=none;fillColor=none;align=center;verticalAlign=middle;whiteSpace=wrap;rounded=0;" parent="UTH4l14dTVkqmEDSazQt-15" vertex="1">
          <mxGeometry width="55" height="10" as="geometry" />
        </mxCell>
        <mxCell id="UTH4l14dTVkqmEDSazQt-18" value="" style="group" parent="1" vertex="1" connectable="0">
          <mxGeometry x="182.5" y="186" width="40" height="14" as="geometry" />
        </mxCell>
        <mxCell id="UTH4l14dTVkqmEDSazQt-19" value="" style="rounded=0;whiteSpace=wrap;html=1;fillColor=#6d8764;fontColor=#ffffff;strokeColor=none;" parent="UTH4l14dTVkqmEDSazQt-18" vertex="1">
          <mxGeometry width="40" height="14" as="geometry" />
        </mxCell>
        <mxCell id="UTH4l14dTVkqmEDSazQt-20" value="&lt;font style=&quot;font-size: 8px&quot;&gt;falken&lt;/font&gt;" style="rounded=0;whiteSpace=wrap;html=1;fillColor=#008a00;fontColor=#ffffff;strokeColor=none;" parent="UTH4l14dTVkqmEDSazQt-18" vertex="1">
          <mxGeometry x="10" y="4" width="30" height="10" as="geometry" />
        </mxCell>
        <mxCell id="UTH4l14dTVkqmEDSazQt-21" value="" style="group;fillColor=#008A00;" parent="UTH4l14dTVkqmEDSazQt-18" vertex="1" connectable="0">
          <mxGeometry width="40" height="14" as="geometry" />
        </mxCell>
        <mxCell id="UTH4l14dTVkqmEDSazQt-22" value="" style="rounded=0;whiteSpace=wrap;html=1;fontColor=#ffffff;strokeColor=none;fillColor=#008A00;" parent="UTH4l14dTVkqmEDSazQt-21" vertex="1">
          <mxGeometry width="40" height="14" as="geometry" />
        </mxCell>
        <mxCell id="UTH4l14dTVkqmEDSazQt-23" value="&lt;font style=&quot;font-size: 8px&quot;&gt;falken&lt;/font&gt;" style="rounded=0;whiteSpace=wrap;html=1;fontColor=#ffffff;strokeColor=none;fillColor=none;" parent="UTH4l14dTVkqmEDSazQt-21" vertex="1">
          <mxGeometry x="10" y="4" width="30" height="10" as="geometry" />
        </mxCell>
        <mxCell id="UTH4l14dTVkqmEDSazQt-27" value="" style="group" parent="1" vertex="1" connectable="0">
          <mxGeometry x="225" y="160" width="55" height="40" as="geometry" />
        </mxCell>
        <mxCell id="UTH4l14dTVkqmEDSazQt-28" value="&lt;div style=&quot;text-align: justify&quot;&gt;&lt;br&gt;&lt;/div&gt;" style="rounded=0;whiteSpace=wrap;html=1;fillColor=#f0a30a;fontColor=#ffffff;strokeColor=none;align=center;" parent="UTH4l14dTVkqmEDSazQt-27" vertex="1">
          <mxGeometry x="2.5" y="10" width="50" height="30" as="geometry" />
        </mxCell>
        <mxCell id="UTH4l14dTVkqmEDSazQt-29" value="&lt;font style=&quot;font-size: 10px&quot;&gt;&lt;b&gt;Service-C&lt;/b&gt;&lt;/font&gt;" style="text;html=1;strokeColor=none;fillColor=none;align=center;verticalAlign=middle;whiteSpace=wrap;rounded=0;" parent="UTH4l14dTVkqmEDSazQt-27" vertex="1">
          <mxGeometry width="55" height="10" as="geometry" />
        </mxCell>
        <mxCell id="UTH4l14dTVkqmEDSazQt-30" value="" style="group" parent="1" vertex="1" connectable="0">
          <mxGeometry x="237.5" y="186" width="40" height="14" as="geometry" />
        </mxCell>
        <mxCell id="UTH4l14dTVkqmEDSazQt-31" value="" style="rounded=0;whiteSpace=wrap;html=1;fillColor=#6d8764;fontColor=#ffffff;strokeColor=none;" parent="UTH4l14dTVkqmEDSazQt-30" vertex="1">
          <mxGeometry width="40" height="14" as="geometry" />
        </mxCell>
        <mxCell id="UTH4l14dTVkqmEDSazQt-32" value="&lt;font style=&quot;font-size: 8px&quot;&gt;falken&lt;/font&gt;" style="rounded=0;whiteSpace=wrap;html=1;fillColor=#008a00;fontColor=#ffffff;strokeColor=none;" parent="UTH4l14dTVkqmEDSazQt-30" vertex="1">
          <mxGeometry x="10" y="4" width="30" height="10" as="geometry" />
        </mxCell>
        <mxCell id="UTH4l14dTVkqmEDSazQt-33" value="" style="group" parent="UTH4l14dTVkqmEDSazQt-30" vertex="1" connectable="0">
          <mxGeometry width="40" height="14" as="geometry" />
        </mxCell>
        <mxCell id="UTH4l14dTVkqmEDSazQt-34" value="" style="rounded=0;whiteSpace=wrap;html=1;fontColor=#ffffff;strokeColor=none;fillColor=#008A00;" parent="UTH4l14dTVkqmEDSazQt-33" vertex="1">
          <mxGeometry width="40" height="14" as="geometry" />
        </mxCell>
        <mxCell id="UTH4l14dTVkqmEDSazQt-35" value="&lt;font style=&quot;font-size: 8px&quot;&gt;falken&lt;/font&gt;" style="rounded=0;whiteSpace=wrap;html=1;fontColor=#ffffff;strokeColor=none;fillColor=none;" parent="UTH4l14dTVkqmEDSazQt-33" vertex="1">
          <mxGeometry x="10" y="4" width="30" height="10" as="geometry" />
        </mxCell>
        <mxCell id="UTH4l14dTVkqmEDSazQt-42" value="Host" style="text;html=1;strokeColor=none;fillColor=none;align=center;verticalAlign=middle;whiteSpace=wrap;rounded=0;" parent="1" vertex="1">
          <mxGeometry x="110" y="130" width="40" height="20" as="geometry" />
        </mxCell>
        <mxCell id="UTH4l14dTVkqmEDSazQt-36" value="&lt;font style=&quot;font-size: 8px&quot;&gt;Throttle agent&lt;/font&gt;" style="rounded=0;whiteSpace=wrap;html=1;fillColor=#60a917;fontColor=#ffffff;" parent="1" vertex="1">
          <mxGeometry x="170" y="226" width="60" height="30" as="geometry" />
        </mxCell>
        <mxCell id="UTH4l14dTVkqmEDSazQt-38" value="&lt;font style=&quot;font-size: 8px&quot;&gt;falken&lt;/font&gt;" style="rounded=0;whiteSpace=wrap;html=1;fillColor=#008a00;fontColor=#ffffff;strokeColor=none;" parent="1" vertex="1">
          <mxGeometry x="200" y="246" width="30" height="10" as="geometry" />
        </mxCell>
        <mxCell id="UTH4l14dTVkqmEDSazQt-45" value="" style="group" parent="1" vertex="1" connectable="0">
          <mxGeometry x="320" y="160" width="55" height="40" as="geometry" />
        </mxCell>
        <mxCell id="UTH4l14dTVkqmEDSazQt-46" value="&lt;div style=&quot;text-align: justify&quot;&gt;&lt;br&gt;&lt;/div&gt;" style="rounded=0;whiteSpace=wrap;html=1;fillColor=#b1ddf0;align=center;strokeColor=none;" parent="UTH4l14dTVkqmEDSazQt-45" vertex="1">
          <mxGeometry x="2.5" y="10" width="50" height="30" as="geometry" />
        </mxCell>
        <mxCell id="UTH4l14dTVkqmEDSazQt-47" value="&lt;font style=&quot;font-size: 10px&quot;&gt;&lt;b&gt;Service-A&lt;/b&gt;&lt;/font&gt;" style="text;html=1;strokeColor=none;fillColor=none;align=center;verticalAlign=middle;whiteSpace=wrap;rounded=0;" parent="UTH4l14dTVkqmEDSazQt-45" vertex="1">
          <mxGeometry width="55" height="10" as="geometry" />
        </mxCell>
        <mxCell id="UTH4l14dTVkqmEDSazQt-48" value="" style="group" parent="1" vertex="1" connectable="0">
          <mxGeometry x="332.5" y="186" width="40" height="14" as="geometry" />
        </mxCell>
        <mxCell id="UTH4l14dTVkqmEDSazQt-49" value="" style="rounded=0;whiteSpace=wrap;html=1;fillColor=#6d8764;fontColor=#ffffff;strokeColor=none;" parent="UTH4l14dTVkqmEDSazQt-48" vertex="1">
          <mxGeometry width="40" height="14" as="geometry" />
        </mxCell>
        <mxCell id="UTH4l14dTVkqmEDSazQt-50" value="&lt;font style=&quot;font-size: 8px&quot;&gt;falken&lt;/font&gt;" style="rounded=0;whiteSpace=wrap;html=1;fillColor=#008a00;fontColor=#ffffff;strokeColor=none;" parent="UTH4l14dTVkqmEDSazQt-48" vertex="1">
          <mxGeometry x="10" y="4" width="30" height="10" as="geometry" />
        </mxCell>
        <mxCell id="UTH4l14dTVkqmEDSazQt-51" value="" style="group" parent="UTH4l14dTVkqmEDSazQt-48" vertex="1" connectable="0">
          <mxGeometry width="40" height="14" as="geometry" />
        </mxCell>
        <mxCell id="UTH4l14dTVkqmEDSazQt-52" value="" style="rounded=0;whiteSpace=wrap;html=1;fontColor=#ffffff;strokeColor=none;fillColor=#008A00;" parent="UTH4l14dTVkqmEDSazQt-51" vertex="1">
          <mxGeometry width="40" height="14" as="geometry" />
        </mxCell>
        <mxCell id="UTH4l14dTVkqmEDSazQt-53" value="&lt;font style=&quot;font-size: 8px&quot;&gt;falken&lt;/font&gt;" style="rounded=0;whiteSpace=wrap;html=1;fontColor=#ffffff;strokeColor=none;fillColor=none;" parent="UTH4l14dTVkqmEDSazQt-51" vertex="1">
          <mxGeometry x="10" y="4" width="30" height="10" as="geometry" />
        </mxCell>
        <mxCell id="UTH4l14dTVkqmEDSazQt-63" value="" style="group" parent="1" vertex="1" connectable="0">
          <mxGeometry x="380" y="160" width="55" height="40" as="geometry" />
        </mxCell>
        <mxCell id="UTH4l14dTVkqmEDSazQt-64" value="&lt;div style=&quot;text-align: justify&quot;&gt;&lt;br&gt;&lt;/div&gt;" style="rounded=0;whiteSpace=wrap;html=1;fontColor=#ffffff;strokeColor=none;align=center;fillColor=#F0A30A;" parent="UTH4l14dTVkqmEDSazQt-63" vertex="1">
          <mxGeometry x="2.5" y="10" width="50" height="30" as="geometry" />
        </mxCell>
        <mxCell id="UTH4l14dTVkqmEDSazQt-65" value="&lt;font style=&quot;font-size: 10px&quot;&gt;&lt;b&gt;Service-C&lt;/b&gt;&lt;/font&gt;" style="text;html=1;strokeColor=none;fillColor=none;align=center;verticalAlign=middle;whiteSpace=wrap;rounded=0;" parent="UTH4l14dTVkqmEDSazQt-63" vertex="1">
          <mxGeometry width="55" height="10" as="geometry" />
        </mxCell>
        <mxCell id="UTH4l14dTVkqmEDSazQt-66" value="" style="group" parent="1" vertex="1" connectable="0">
          <mxGeometry x="392.5" y="186" width="40" height="14" as="geometry" />
        </mxCell>
        <mxCell id="UTH4l14dTVkqmEDSazQt-67" value="" style="rounded=0;whiteSpace=wrap;html=1;fillColor=#6d8764;fontColor=#ffffff;strokeColor=none;" parent="UTH4l14dTVkqmEDSazQt-66" vertex="1">
          <mxGeometry width="40" height="14" as="geometry" />
        </mxCell>
        <mxCell id="UTH4l14dTVkqmEDSazQt-68" value="&lt;font style=&quot;font-size: 8px&quot;&gt;falken&lt;/font&gt;" style="rounded=0;whiteSpace=wrap;html=1;fillColor=#008a00;fontColor=#ffffff;strokeColor=none;" parent="UTH4l14dTVkqmEDSazQt-66" vertex="1">
          <mxGeometry x="10" y="4" width="30" height="10" as="geometry" />
        </mxCell>
        <mxCell id="UTH4l14dTVkqmEDSazQt-69" value="" style="group" parent="UTH4l14dTVkqmEDSazQt-66" vertex="1" connectable="0">
          <mxGeometry width="40" height="14" as="geometry" />
        </mxCell>
        <mxCell id="UTH4l14dTVkqmEDSazQt-70" value="" style="rounded=0;whiteSpace=wrap;html=1;fontColor=#ffffff;strokeColor=none;fillColor=#008A00;" parent="UTH4l14dTVkqmEDSazQt-69" vertex="1">
          <mxGeometry width="40" height="14" as="geometry" />
        </mxCell>
        <mxCell id="UTH4l14dTVkqmEDSazQt-71" value="&lt;font style=&quot;font-size: 8px&quot;&gt;falken&lt;/font&gt;" style="rounded=0;whiteSpace=wrap;html=1;fontColor=#ffffff;strokeColor=none;fillColor=none;" parent="UTH4l14dTVkqmEDSazQt-69" vertex="1">
          <mxGeometry x="10" y="4" width="30" height="10" as="geometry" />
        </mxCell>
        <mxCell id="UTH4l14dTVkqmEDSazQt-72" value="Host" style="text;html=1;strokeColor=none;fillColor=none;align=center;verticalAlign=middle;whiteSpace=wrap;rounded=0;" parent="1" vertex="1">
          <mxGeometry x="318" y="130" width="40" height="20" as="geometry" />
        </mxCell>
        <mxCell id="UTH4l14dTVkqmEDSazQt-73" value="&lt;font style=&quot;font-size: 8px&quot;&gt;Throttle agent&lt;/font&gt;" style="rounded=0;whiteSpace=wrap;html=1;fillColor=#60a917;fontColor=#ffffff;" parent="1" vertex="1">
          <mxGeometry x="350" y="226" width="60" height="30" as="geometry" />
        </mxCell>
        <mxCell id="UTH4l14dTVkqmEDSazQt-74" value="&lt;font style=&quot;font-size: 8px&quot;&gt;falken&lt;/font&gt;" style="rounded=0;whiteSpace=wrap;html=1;fillColor=#008a00;fontColor=#ffffff;strokeColor=none;" parent="1" vertex="1">
          <mxGeometry x="380" y="246" width="30" height="10" as="geometry" />
        </mxCell>
        <mxCell id="UTH4l14dTVkqmEDSazQt-112" value="" style="group" parent="1" vertex="1" connectable="0">
          <mxGeometry x="500" y="160" width="55" height="40" as="geometry" />
        </mxCell>
        <mxCell id="UTH4l14dTVkqmEDSazQt-113" value="&lt;div style=&quot;text-align: justify&quot;&gt;&lt;br&gt;&lt;/div&gt;" style="rounded=0;whiteSpace=wrap;html=1;fillColor=#b0e3e6;align=center;strokeColor=none;" parent="UTH4l14dTVkqmEDSazQt-112" vertex="1">
          <mxGeometry x="2.5" y="10" width="50" height="30" as="geometry" />
        </mxCell>
        <mxCell id="UTH4l14dTVkqmEDSazQt-114" value="&lt;font style=&quot;font-size: 10px&quot;&gt;&lt;b&gt;Service-A&lt;/b&gt;&lt;/font&gt;" style="text;html=1;strokeColor=none;fillColor=none;align=center;verticalAlign=middle;whiteSpace=wrap;rounded=0;" parent="UTH4l14dTVkqmEDSazQt-112" vertex="1">
          <mxGeometry width="55" height="10" as="geometry" />
        </mxCell>
        <mxCell id="UTH4l14dTVkqmEDSazQt-115" value="" style="group;fillColor=#008A00;" parent="1" vertex="1" connectable="0">
          <mxGeometry x="512.5" y="186" width="40" height="14" as="geometry" />
        </mxCell>
        <mxCell id="UTH4l14dTVkqmEDSazQt-116" value="" style="rounded=0;whiteSpace=wrap;html=1;fillColor=#6d8764;fontColor=#ffffff;strokeColor=none;" parent="UTH4l14dTVkqmEDSazQt-115" vertex="1">
          <mxGeometry width="40" height="14" as="geometry" />
        </mxCell>
        <mxCell id="UTH4l14dTVkqmEDSazQt-117" value="&lt;font style=&quot;font-size: 8px&quot;&gt;falken&lt;/font&gt;" style="rounded=0;whiteSpace=wrap;html=1;fillColor=#008a00;fontColor=#ffffff;strokeColor=none;" parent="UTH4l14dTVkqmEDSazQt-115" vertex="1">
          <mxGeometry x="10" y="4" width="30" height="10" as="geometry" />
        </mxCell>
        <mxCell id="UTH4l14dTVkqmEDSazQt-118" value="" style="group" parent="UTH4l14dTVkqmEDSazQt-115" vertex="1" connectable="0">
          <mxGeometry width="40" height="14" as="geometry" />
        </mxCell>
        <mxCell id="UTH4l14dTVkqmEDSazQt-119" value="" style="rounded=0;whiteSpace=wrap;html=1;fontColor=#ffffff;strokeColor=none;fillColor=#008A00;" parent="UTH4l14dTVkqmEDSazQt-118" vertex="1">
          <mxGeometry width="40" height="14" as="geometry" />
        </mxCell>
        <mxCell id="UTH4l14dTVkqmEDSazQt-120" value="&lt;font style=&quot;font-size: 8px&quot;&gt;falken&lt;/font&gt;" style="rounded=0;whiteSpace=wrap;html=1;fontColor=#ffffff;strokeColor=none;fillColor=none;" parent="UTH4l14dTVkqmEDSazQt-118" vertex="1">
          <mxGeometry x="10" y="4" width="30" height="10" as="geometry" />
        </mxCell>
        <mxCell id="UTH4l14dTVkqmEDSazQt-121" value="" style="group" parent="1" vertex="1" connectable="0">
          <mxGeometry x="560" y="160" width="55" height="40" as="geometry" />
        </mxCell>
        <mxCell id="UTH4l14dTVkqmEDSazQt-122" value="&lt;div style=&quot;text-align: justify&quot;&gt;&lt;br&gt;&lt;/div&gt;" style="rounded=0;whiteSpace=wrap;html=1;fillColor=#d0cee2;align=center;strokeColor=none;" parent="UTH4l14dTVkqmEDSazQt-121" vertex="1">
          <mxGeometry x="2.5" y="10" width="50" height="30" as="geometry" />
        </mxCell>
        <mxCell id="UTH4l14dTVkqmEDSazQt-123" value="&lt;font style=&quot;font-size: 10px&quot;&gt;&lt;b&gt;Service-B&lt;/b&gt;&lt;/font&gt;" style="text;html=1;strokeColor=none;fillColor=none;align=center;verticalAlign=middle;whiteSpace=wrap;rounded=0;" parent="UTH4l14dTVkqmEDSazQt-121" vertex="1">
          <mxGeometry width="55" height="10" as="geometry" />
        </mxCell>
        <mxCell id="UTH4l14dTVkqmEDSazQt-124" value="" style="group" parent="1" vertex="1" connectable="0">
          <mxGeometry x="572.5" y="186" width="40" height="14" as="geometry" />
        </mxCell>
        <mxCell id="UTH4l14dTVkqmEDSazQt-125" value="" style="rounded=0;whiteSpace=wrap;html=1;fillColor=#6d8764;fontColor=#ffffff;strokeColor=none;" parent="UTH4l14dTVkqmEDSazQt-124" vertex="1">
          <mxGeometry width="40" height="14" as="geometry" />
        </mxCell>
        <mxCell id="UTH4l14dTVkqmEDSazQt-126" value="&lt;font style=&quot;font-size: 8px&quot;&gt;falken&lt;/font&gt;" style="rounded=0;whiteSpace=wrap;html=1;fillColor=#008a00;fontColor=#ffffff;strokeColor=none;" parent="UTH4l14dTVkqmEDSazQt-124" vertex="1">
          <mxGeometry x="10" y="4" width="30" height="10" as="geometry" />
        </mxCell>
        <mxCell id="UTH4l14dTVkqmEDSazQt-127" value="" style="group" parent="UTH4l14dTVkqmEDSazQt-124" vertex="1" connectable="0">
          <mxGeometry width="40" height="14" as="geometry" />
        </mxCell>
        <mxCell id="UTH4l14dTVkqmEDSazQt-128" value="" style="rounded=0;whiteSpace=wrap;html=1;fontColor=#ffffff;strokeColor=none;fillColor=#008A00;" parent="UTH4l14dTVkqmEDSazQt-127" vertex="1">
          <mxGeometry width="40" height="14" as="geometry" />
        </mxCell>
        <mxCell id="UTH4l14dTVkqmEDSazQt-129" value="&lt;font style=&quot;font-size: 8px&quot;&gt;falken&lt;/font&gt;" style="rounded=0;whiteSpace=wrap;html=1;fontColor=#ffffff;strokeColor=none;fillColor=none;" parent="UTH4l14dTVkqmEDSazQt-127" vertex="1">
          <mxGeometry x="10" y="4" width="30" height="10" as="geometry" />
        </mxCell>
        <mxCell id="UTH4l14dTVkqmEDSazQt-130" value="" style="group" parent="1" vertex="1" connectable="0">
          <mxGeometry x="615" y="160" width="55" height="40" as="geometry" />
        </mxCell>
        <mxCell id="UTH4l14dTVkqmEDSazQt-131" value="&lt;div style=&quot;text-align: justify&quot;&gt;&lt;br&gt;&lt;/div&gt;" style="rounded=0;whiteSpace=wrap;html=1;fillColor=#f0a30a;fontColor=#ffffff;strokeColor=none;align=center;" parent="UTH4l14dTVkqmEDSazQt-130" vertex="1">
          <mxGeometry x="2.5" y="10" width="50" height="30" as="geometry" />
        </mxCell>
        <mxCell id="UTH4l14dTVkqmEDSazQt-132" value="&lt;font style=&quot;font-size: 10px&quot;&gt;&lt;b&gt;Service-C&lt;/b&gt;&lt;/font&gt;" style="text;html=1;strokeColor=none;fillColor=none;align=center;verticalAlign=middle;whiteSpace=wrap;rounded=0;" parent="UTH4l14dTVkqmEDSazQt-130" vertex="1">
          <mxGeometry width="55" height="10" as="geometry" />
        </mxCell>
        <mxCell id="UTH4l14dTVkqmEDSazQt-133" value="" style="group" parent="1" vertex="1" connectable="0">
          <mxGeometry x="627.5" y="186" width="40" height="14" as="geometry" />
        </mxCell>
        <mxCell id="UTH4l14dTVkqmEDSazQt-134" value="" style="rounded=0;whiteSpace=wrap;html=1;fillColor=#6d8764;fontColor=#ffffff;strokeColor=none;" parent="UTH4l14dTVkqmEDSazQt-133" vertex="1">
          <mxGeometry width="40" height="14" as="geometry" />
        </mxCell>
        <mxCell id="UTH4l14dTVkqmEDSazQt-135" value="&lt;font style=&quot;font-size: 8px&quot;&gt;falken&lt;/font&gt;" style="rounded=0;whiteSpace=wrap;html=1;fillColor=#008a00;fontColor=#ffffff;strokeColor=none;" parent="UTH4l14dTVkqmEDSazQt-133" vertex="1">
          <mxGeometry x="10" y="4" width="30" height="10" as="geometry" />
        </mxCell>
        <mxCell id="UTH4l14dTVkqmEDSazQt-136" value="" style="group" parent="UTH4l14dTVkqmEDSazQt-133" vertex="1" connectable="0">
          <mxGeometry width="40" height="14" as="geometry" />
        </mxCell>
        <mxCell id="UTH4l14dTVkqmEDSazQt-137" value="" style="rounded=0;whiteSpace=wrap;html=1;fontColor=#ffffff;strokeColor=none;fillColor=#008A00;" parent="UTH4l14dTVkqmEDSazQt-136" vertex="1">
          <mxGeometry width="40" height="14" as="geometry" />
        </mxCell>
        <mxCell id="UTH4l14dTVkqmEDSazQt-138" value="&lt;font style=&quot;font-size: 8px&quot;&gt;falken&lt;/font&gt;" style="rounded=0;whiteSpace=wrap;html=1;fontColor=#ffffff;strokeColor=none;fillColor=none;" parent="UTH4l14dTVkqmEDSazQt-136" vertex="1">
          <mxGeometry x="10" y="4" width="30" height="10" as="geometry" />
        </mxCell>
        <mxCell id="UTH4l14dTVkqmEDSazQt-139" value="Host" style="text;html=1;strokeColor=none;fillColor=none;align=center;verticalAlign=middle;whiteSpace=wrap;rounded=0;" parent="1" vertex="1">
          <mxGeometry x="500" y="130" width="40" height="20" as="geometry" />
        </mxCell>
        <mxCell id="UTH4l14dTVkqmEDSazQt-142" value="" style="endArrow=none;dashed=1;html=1;dashPattern=1 3;strokeWidth=2;strokeColor=#BD7000;fillColor=#f0a30a;" parent="1" edge="1">
          <mxGeometry width="50" height="50" relative="1" as="geometry">
            <mxPoint x="485.5" y="199.17000000000002" as="sourcePoint" />
            <mxPoint x="450" y="199.17000000000002" as="targetPoint" />
          </mxGeometry>
        </mxCell>
        <mxCell id="sjCQOgqBna5IyIyZHuyT-1" value="&lt;font style=&quot;font-size: 8px&quot;&gt;Throttle agent&lt;/font&gt;" style="rounded=0;whiteSpace=wrap;html=1;fillColor=#60a917;fontColor=#ffffff;" vertex="1" parent="1">
          <mxGeometry x="562.5" y="226" width="60" height="30" as="geometry" />
        </mxCell>
        <mxCell id="sjCQOgqBna5IyIyZHuyT-2" value="&lt;font style=&quot;font-size: 8px&quot;&gt;falken&lt;/font&gt;" style="rounded=0;whiteSpace=wrap;html=1;fillColor=#008a00;fontColor=#ffffff;strokeColor=none;" vertex="1" parent="1">
          <mxGeometry x="592.5" y="246" width="30" height="10" as="geometry" />
        </mxCell>
        <mxCell id="sjCQOgqBna5IyIyZHuyT-3" value="" style="endArrow=classic;startArrow=classic;html=1;strokeColor=#2D7600;fillColor=#60a917;exitX=0.5;exitY=1;exitDx=0;exitDy=0;entryX=0.5;entryY=0;entryDx=0;entryDy=0;" edge="1" parent="1" target="UTH4l14dTVkqmEDSazQt-36">
          <mxGeometry width="50" height="50" relative="1" as="geometry">
            <mxPoint x="147.5" y="200" as="sourcePoint" />
            <mxPoint x="300" y="240" as="targetPoint" />
          </mxGeometry>
        </mxCell>
        <mxCell id="sjCQOgqBna5IyIyZHuyT-4" value="" style="endArrow=classic;startArrow=classic;html=1;strokeColor=#2D7600;fillColor=#60a917;exitX=0.25;exitY=1;exitDx=0;exitDy=0;entryX=0.5;entryY=0;entryDx=0;entryDy=0;" edge="1" parent="1" source="UTH4l14dTVkqmEDSazQt-23" target="UTH4l14dTVkqmEDSazQt-36">
          <mxGeometry width="50" height="50" relative="1" as="geometry">
            <mxPoint x="157.5" y="210" as="sourcePoint" />
            <mxPoint x="205" y="236" as="targetPoint" />
          </mxGeometry>
        </mxCell>
        <mxCell id="sjCQOgqBna5IyIyZHuyT-5" value="" style="endArrow=classic;startArrow=classic;html=1;strokeColor=#2D7600;fillColor=#60a917;exitX=0.5;exitY=1;exitDx=0;exitDy=0;entryX=0.5;entryY=0;entryDx=0;entryDy=0;" edge="1" parent="1" source="UTH4l14dTVkqmEDSazQt-35" target="UTH4l14dTVkqmEDSazQt-36">
          <mxGeometry width="50" height="50" relative="1" as="geometry">
            <mxPoint x="210" y="210" as="sourcePoint" />
            <mxPoint x="210" y="236" as="targetPoint" />
          </mxGeometry>
        </mxCell>
        <mxCell id="sjCQOgqBna5IyIyZHuyT-6" value="" style="endArrow=classic;startArrow=classic;html=1;strokeColor=#2D7600;fillColor=#60a917;exitX=0.25;exitY=1;exitDx=0;exitDy=0;entryX=0.5;entryY=0;entryDx=0;entryDy=0;" edge="1" parent="1" source="UTH4l14dTVkqmEDSazQt-53" target="UTH4l14dTVkqmEDSazQt-73">
          <mxGeometry width="50" height="50" relative="1" as="geometry">
            <mxPoint x="272.5" y="210" as="sourcePoint" />
            <mxPoint x="210" y="236" as="targetPoint" />
          </mxGeometry>
        </mxCell>
        <mxCell id="sjCQOgqBna5IyIyZHuyT-7" value="" style="endArrow=classic;startArrow=classic;html=1;strokeColor=#2D7600;fillColor=#60a917;exitX=0.25;exitY=1;exitDx=0;exitDy=0;entryX=0.5;entryY=0;entryDx=0;entryDy=0;" edge="1" parent="1" source="UTH4l14dTVkqmEDSazQt-71" target="UTH4l14dTVkqmEDSazQt-73">
          <mxGeometry width="50" height="50" relative="1" as="geometry">
            <mxPoint x="360" y="210" as="sourcePoint" />
            <mxPoint x="390" y="236" as="targetPoint" />
          </mxGeometry>
        </mxCell>
        <mxCell id="sjCQOgqBna5IyIyZHuyT-8" value="" style="endArrow=classic;startArrow=classic;html=1;strokeColor=#2D7600;fillColor=#60a917;exitX=0.428;exitY=0.989;exitDx=0;exitDy=0;entryX=0.5;entryY=0;entryDx=0;entryDy=0;exitPerimeter=0;" edge="1" parent="1" source="UTH4l14dTVkqmEDSazQt-113" target="sjCQOgqBna5IyIyZHuyT-1">
          <mxGeometry width="50" height="50" relative="1" as="geometry">
            <mxPoint x="420" y="210" as="sourcePoint" />
            <mxPoint x="390" y="236" as="targetPoint" />
          </mxGeometry>
        </mxCell>
        <mxCell id="sjCQOgqBna5IyIyZHuyT-9" value="" style="endArrow=classic;startArrow=classic;html=1;strokeColor=#2D7600;fillColor=#60a917;exitX=0.5;exitY=1;exitDx=0;exitDy=0;entryX=0.5;entryY=0;entryDx=0;entryDy=0;" edge="1" parent="1" source="UTH4l14dTVkqmEDSazQt-128" target="sjCQOgqBna5IyIyZHuyT-1">
          <mxGeometry width="50" height="50" relative="1" as="geometry">
            <mxPoint x="533.9000000000001" y="209.66999999999996" as="sourcePoint" />
            <mxPoint x="602.5" y="236" as="targetPoint" />
          </mxGeometry>
        </mxCell>
        <mxCell id="sjCQOgqBna5IyIyZHuyT-10" value="" style="endArrow=classic;startArrow=classic;html=1;strokeColor=#2D7600;fillColor=#60a917;exitX=0.25;exitY=1;exitDx=0;exitDy=0;entryX=0.5;entryY=0;entryDx=0;entryDy=0;" edge="1" parent="1" source="UTH4l14dTVkqmEDSazQt-138" target="sjCQOgqBna5IyIyZHuyT-1">
          <mxGeometry width="50" height="50" relative="1" as="geometry">
            <mxPoint x="602.5" y="210" as="sourcePoint" />
            <mxPoint x="602.5" y="236" as="targetPoint" />
          </mxGeometry>
        </mxCell>
        <mxCell id="sjCQOgqBna5IyIyZHuyT-15" value="" style="rounded=0;whiteSpace=wrap;html=1;strokeColor=none;fillColor=#FFFFFF;gradientColor=#666666;" vertex="1" parent="1">
          <mxGeometry x="294.5" y="319" width="175.5" height="90" as="geometry" />
        </mxCell>
        <mxCell id="sjCQOgqBna5IyIyZHuyT-16" value="Controller Farm" style="text;html=1;strokeColor=none;fillColor=none;align=center;verticalAlign=middle;whiteSpace=wrap;rounded=0;" vertex="1" parent="1">
          <mxGeometry x="294.5" y="299" width="85.5" height="20" as="geometry" />
        </mxCell>
        <mxCell id="sjCQOgqBna5IyIyZHuyT-23" value="&lt;font style=&quot;font-size: 8px&quot;&gt;controller&lt;/font&gt;" style="ellipse;whiteSpace=wrap;html=1;strokeColor=#000000;fillColor=#B1DDF0;" vertex="1" parent="1">
          <mxGeometry x="312" y="339" width="40" height="20" as="geometry" />
        </mxCell>
        <mxCell id="sjCQOgqBna5IyIyZHuyT-31" value="&lt;font style=&quot;font-size: 8px&quot;&gt;controller&lt;/font&gt;" style="ellipse;whiteSpace=wrap;html=1;strokeColor=#000000;fillColor=#B1DDF0;" vertex="1" parent="1">
          <mxGeometry x="362.5" y="339" width="40" height="20" as="geometry" />
        </mxCell>
        <mxCell id="sjCQOgqBna5IyIyZHuyT-32" value="&lt;font style=&quot;font-size: 8px&quot;&gt;controller&lt;/font&gt;" style="ellipse;whiteSpace=wrap;html=1;strokeColor=#000000;fillColor=#F0A30A;" vertex="1" parent="1">
          <mxGeometry x="415" y="339" width="40" height="20" as="geometry" />
        </mxCell>
        <mxCell id="sjCQOgqBna5IyIyZHuyT-33" value="&lt;font style=&quot;font-size: 8px&quot;&gt;controller&lt;/font&gt;" style="ellipse;whiteSpace=wrap;html=1;strokeColor=#000000;fillColor=#D0CEE2;" vertex="1" parent="1">
          <mxGeometry x="312" y="374" width="40" height="20" as="geometry" />
        </mxCell>
        <mxCell id="sjCQOgqBna5IyIyZHuyT-34" value="&lt;font style=&quot;font-size: 8px&quot;&gt;controller&lt;/font&gt;" style="ellipse;whiteSpace=wrap;html=1;strokeColor=#000000;fillColor=#D0CEE2;" vertex="1" parent="1">
          <mxGeometry x="362.5" y="374" width="40" height="20" as="geometry" />
        </mxCell>
        <mxCell id="sjCQOgqBna5IyIyZHuyT-35" value="&lt;font style=&quot;font-size: 8px&quot;&gt;controller&lt;/font&gt;" style="ellipse;whiteSpace=wrap;html=1;strokeColor=#000000;fillColor=#F0A30A;" vertex="1" parent="1">
          <mxGeometry x="415" y="374" width="40" height="20" as="geometry" />
        </mxCell>
        <mxCell id="sjCQOgqBna5IyIyZHuyT-36" value="" style="rounded=0;whiteSpace=wrap;html=1;dashed=1;dashPattern=1 1;gradientColor=#666666;fillColor=none;strokeColor=#FF0000;" vertex="1" parent="1">
          <mxGeometry x="307" y="333" width="100" height="32" as="geometry" />
        </mxCell>
        <mxCell id="sjCQOgqBna5IyIyZHuyT-38" value="" style="rounded=0;whiteSpace=wrap;html=1;dashed=1;dashPattern=1 1;gradientColor=#666666;fillColor=none;strokeColor=#FF0000;" vertex="1" parent="1">
          <mxGeometry x="306" y="370" width="100" height="30" as="geometry" />
        </mxCell>
        <mxCell id="sjCQOgqBna5IyIyZHuyT-39" value="" style="rounded=0;whiteSpace=wrap;html=1;dashed=1;dashPattern=1 1;gradientColor=#666666;fillColor=none;strokeColor=#FF0000;" vertex="1" parent="1">
          <mxGeometry x="412" y="333" width="50" height="66" as="geometry" />
        </mxCell>
        <mxCell id="sjCQOgqBna5IyIyZHuyT-40" value="" style="endArrow=classic;startArrow=classic;html=1;entryX=0.5;entryY=1;entryDx=0;entryDy=0;exitX=0.5;exitY=0;exitDx=0;exitDy=0;strokeColor=#FF0000;" edge="1" parent="1" source="sjCQOgqBna5IyIyZHuyT-15" target="UTH4l14dTVkqmEDSazQt-36">
          <mxGeometry width="50" height="50" relative="1" as="geometry">
            <mxPoint x="260" y="360" as="sourcePoint" />
            <mxPoint x="310" y="310" as="targetPoint" />
          </mxGeometry>
        </mxCell>
        <mxCell id="sjCQOgqBna5IyIyZHuyT-41" value="" style="endArrow=classic;startArrow=classic;html=1;entryX=0;entryY=0.75;entryDx=0;entryDy=0;exitX=1;exitY=1;exitDx=0;exitDy=0;strokeColor=#FF0000;" edge="1" parent="1" source="sjCQOgqBna5IyIyZHuyT-16" target="UTH4l14dTVkqmEDSazQt-74">
          <mxGeometry width="50" height="50" relative="1" as="geometry">
            <mxPoint x="362.25" y="400" as="sourcePoint" />
            <mxPoint x="210" y="266" as="targetPoint" />
          </mxGeometry>
        </mxCell>
        <mxCell id="sjCQOgqBna5IyIyZHuyT-42" value="" style="endArrow=classic;startArrow=classic;html=1;entryX=0.446;entryY=0.986;entryDx=0;entryDy=0;exitX=0.5;exitY=0;exitDx=0;exitDy=0;strokeColor=#FF0000;entryPerimeter=0;" edge="1" parent="1" source="sjCQOgqBna5IyIyZHuyT-15" target="sjCQOgqBna5IyIyZHuyT-1">
          <mxGeometry width="50" height="50" relative="1" as="geometry">
            <mxPoint x="360" y="400" as="sourcePoint" />
            <mxPoint x="390" y="263.5" as="targetPoint" />
          </mxGeometry>
        </mxCell>
      </root>
    </mxGraphModel>
  </diagram>
</mxfile>
